<?xml version="1.0" standalone="no"?>
<!DOCTYPE svg PUBLIC "-//W3C//DTD SVG 20010904//EN"
 "http://www.w3.org/TR/2001/REC-SVG-20010904/DTD/svg10.dtd">
<svg version="1.0" xmlns="http://www.w3.org/2000/svg"
 width="700.000000pt" height="700.000000pt" viewBox="0 0 700.000000 700.000000"
 preserveAspectRatio="xMidYMid meet">
<metadata>
Created by potrace 1.14, written by Peter Selinger 2001-2017
</metadata>
<g transform="translate(0.000000,700.000000) scale(0.100000,-0.100000)"
fill="#000000" stroke="none">
<path d="M2692 4433 l3 -2158 1615 0 1615 0 -1 105 c-1 99 -10 273 -19 350 -2
19 -7 60 -10 90 -9 79 -35 252 -51 330 -3 14 -7 39 -10 55 -3 17 -12 57 -20
90 -8 33 -17 68 -19 77 -85 370 -257 801 -463 1163 -72 126 -232 378 -251 395
-4 3 -33 41 -65 85 -433 584 -1079 1095 -1731 1369 -60 26 -119 51 -130 55
-81 37 -432 151 -462 151 -2 0 -2 -971 -1 -2157z m593 1484 c390 -194 716
-429 1026 -737 201 -201 407 -456 539 -670 29 -47 61 -97 70 -111 10 -14 48
-81 85 -150 252 -467 410 -972 470 -1497 l6 -52 -1183 2 -1183 3 -1 1635 c0
899 2 1639 4 1643 6 12 35 0 167 -66z"/>
<path d="M1080 1760 c0 -21 199 -294 278 -382 l34 -38 2111 0 c2034 1 2113 1
2127 19 145 177 307 396 298 403 -9 5 -4848 3 -4848 -2z"/>
<path d="M2075 789 c185 -108 392 -198 609 -263 107 -33 307 -78 396 -90 19
-3 55 -7 80 -10 294 -38 675 -19 965 48 11 2 42 9 69 16 146 33 369 114 536
193 98 47 260 136 260 143 0 2 -672 4 -1492 4 l-1493 0 70 -41z"/>
</g>
</svg>
